<mxfile host="Electron" modified="2024-01-09T15:49:17.339Z" agent="Mozilla/5.0 (Windows NT 10.0; Win64; x64) AppleWebKit/537.36 (KHTML, like Gecko) draw.io/22.1.16 Chrome/120.0.6099.109 Electron/28.1.0 Safari/537.36" etag="pNYgDOL6aqhBhxFWSoVA" version="22.1.16" type="device">
  <diagram name="Page-1" id="MuZVvoodq-XPGNOuY06b">
    <mxGraphModel dx="1221" dy="713" grid="1" gridSize="10" guides="1" tooltips="1" connect="1" arrows="1" fold="1" page="1" pageScale="1" pageWidth="850" pageHeight="1100" math="0" shadow="0">
      <root>
        <mxCell id="0" />
        <mxCell id="1" parent="0" />
        <mxCell id="bTtcp_-NLH_COfa7ZWis-8" value="" style="whiteSpace=wrap;html=1;aspect=fixed;fillColor=#FFFFFF;fontColor=#333333;strokeColor=#666666;" vertex="1" parent="1">
          <mxGeometry x="170" y="280" width="384" height="384" as="geometry" />
        </mxCell>
        <mxCell id="bTtcp_-NLH_COfa7ZWis-1" value="" style="shape=image;verticalLabelPosition=bottom;labelBackgroundColor=default;verticalAlign=top;aspect=fixed;imageAspect=0;image=https://cdn-icons-png.flaticon.com/512/5531/5531543.png;" vertex="1" parent="1">
          <mxGeometry x="270" y="450" width="170" height="170" as="geometry" />
        </mxCell>
        <mxCell id="bTtcp_-NLH_COfa7ZWis-2" value="" style="shape=image;verticalLabelPosition=bottom;labelBackgroundColor=default;verticalAlign=top;aspect=fixed;imageAspect=0;image=https://cdn-icons-png.flaticon.com/512/3593/3593684.png;" vertex="1" parent="1">
          <mxGeometry x="394" y="420" width="62" height="62" as="geometry" />
        </mxCell>
        <mxCell id="bTtcp_-NLH_COfa7ZWis-5" value="" style="ellipse;shape=cloud;whiteSpace=wrap;html=1;fillColor=#1ba1e2;fontColor=#ffffff;strokeColor=#006EAF;" vertex="1" parent="1">
          <mxGeometry x="295" y="310" width="120" height="80" as="geometry" />
        </mxCell>
        <mxCell id="bTtcp_-NLH_COfa7ZWis-6" value="" style="shape=flexArrow;endArrow=classic;startArrow=classic;html=1;rounded=0;fillColor=#1ba1e2;strokeColor=#006EAF;" edge="1" parent="1">
          <mxGeometry width="100" height="100" relative="1" as="geometry">
            <mxPoint x="352.21" y="460" as="sourcePoint" />
            <mxPoint x="357.8" y="400" as="targetPoint" />
          </mxGeometry>
        </mxCell>
      </root>
    </mxGraphModel>
  </diagram>
</mxfile>
